# xmcd
#
# Track frame offsets: 
#        150
#        12399
#        24281
#        35742
#        50562
#        67788
#        81087
#        95145
#        111390
#        124454
#
# Disc length: 1813 seconds
#
# Revision: 0
# Processed by: cddbd v1.5.2PL0 Copyright (c) Steve Scherf et al.
# Submitted via: ExactAudioCopyFreeDBPlugin 1.0
#
DISCID=8607130a
DTITLE=The Sadies - The Good Family Album
DYEAR=1900
DGENRE=Folk
TTITLE0=Coal Black Hills
TTITLE1=Taller Than the Pines
TTITLE2=Paradise
TTITLE3=Life Passes (And Old Fires Die)
TTITLE4=Leaf in a Storm
TTITLE5=Outside of Saskatoon
TTITLE6=Secrets
TTITLE7=Restless River
TTITLE8=Same Old Song
TTITLE9=Instantmental Breakdown
EXTD=
EXTT0=
EXTT1=
EXTT2=
EXTT3=
EXTT4=
EXTT5=
EXTT6=
EXTT7=
EXTT8=
EXTT9=
PLAYORDER=
